<svg width="72" height="73" viewBox="0 0 72 73" fill="none" xmlns="http://www.w3.org/2000/svg">
<circle cx="35.9413" cy="36.5126" r="35.6267" fill="url(#paint0_linear_18_8)"/>
<path d="M54.0116 14.6427H58.1416C58.5335 14.6427 58.8513 14.3249 58.8513 13.933C58.8513 13.541 58.534 13.2233 58.1416 13.2233H51.9593C51.9216 13.2233 51.8895 13.2391 51.8538 13.2445C51.8375 13.247 51.8222 13.251 51.8058 13.2544C51.736 13.2703 51.6717 13.2926 51.6113 13.3277C51.5866 13.3415 51.5648 13.3579 51.542 13.3747C51.495 13.4098 51.4535 13.4475 51.4163 13.493C51.4035 13.5083 51.3852 13.5167 51.3733 13.5336C51.3584 13.5548 51.3555 13.5796 51.3431 13.6019C51.3243 13.637 51.308 13.6712 51.2951 13.7098C51.2723 13.7736 51.2604 13.836 51.2565 13.9018C51.256 13.9127 51.25 13.9221 51.25 13.9334V20.1153C51.25 20.5072 51.5673 20.825 51.9597 20.825C52.3517 20.825 52.6694 20.5072 52.6694 20.1153V15.3771C59.0992 20.4751 62.9021 28.2709 62.9021 36.5124C62.9021 51.3775 50.8077 63.4705 35.9414 63.4705C32.5796 63.4705 29.2998 62.8593 26.1929 61.6547C25.8291 61.5126 25.4169 61.6943 25.2749 62.0595C25.1333 62.4247 25.3144 62.836 25.6802 62.9775C28.9504 64.246 32.4028 64.8894 35.9414 64.8894C51.5895 64.8894 64.3211 52.1591 64.3211 36.5123C64.3211 28.037 60.4984 20.0116 54.0118 14.6422L54.0116 14.6427Z" fill="white"/>
<path d="M17.493 58.0647H13.2924C12.9004 58.0647 12.5827 58.3824 12.5827 58.7744C12.5827 59.1664 12.8999 59.4841 13.2924 59.4841H19.4742C19.5939 59.4841 19.7013 59.447 19.8003 59.3945C19.8008 59.394 19.8013 59.3935 19.8023 59.3935C19.8879 59.348 19.9592 59.2866 20.0195 59.2119C20.0304 59.199 20.0468 59.1941 20.0572 59.1807C20.0755 59.156 20.0799 59.1268 20.0943 59.101C20.1096 59.0718 20.1245 59.0436 20.1359 59.012C20.1655 58.9352 20.1804 58.859 20.1829 58.7789C20.1829 58.7774 20.1839 58.7759 20.1839 58.7744V58.7586C20.1839 58.7185 20.1903 58.6794 20.1839 58.6403V52.5921C20.1839 52.2002 19.8666 51.8824 19.4742 51.8824C19.0822 51.8824 18.7645 52.2002 18.7645 52.5921V57.2858C12.6138 52.1878 8.98021 44.5289 8.98021 36.5129C8.98021 21.6491 21.0751 9.55481 35.9409 9.55481C39.0835 9.55481 42.1622 10.0903 45.0906 11.1469C45.4578 11.2795 45.8661 11.0885 45.9983 10.7202C46.1314 10.3515 45.9399 9.94473 45.5717 9.8121C42.4884 8.70006 39.2478 8.13593 35.9408 8.13593C20.2928 8.13593 7.56122 20.8662 7.56122 36.513C7.56122 44.7902 11.2437 52.7021 17.4929 58.0651L17.493 58.0647Z" fill="white"/>
<path d="M16.0665 36.647C16.0665 47.5744 24.9742 56.4646 35.9233 56.4646H35.9238C44.397 56.4646 51.6441 51.139 54.4897 43.6671C54.5768 43.5518 54.6367 43.4157 54.6396 43.2608C55.376 41.1911 55.7809 38.9661 55.7809 36.6475C55.7809 25.7206 46.8727 16.8299 35.924 16.8299C24.9753 16.8304 16.0671 25.7203 16.0671 36.6475L16.0665 36.647ZM36.942 18.3054C37.0038 18.3559 41.6554 22.229 43.9344 29.069H36.6331V18.2672C36.7281 18.2707 36.8241 18.2717 36.9186 18.2771C36.928 18.2856 36.9321 18.2975 36.942 18.3054ZM45.1672 36.647C45.1672 38.7706 44.8297 40.7349 44.2937 42.5368H36.6336L36.6332 30.4875H44.359C44.8564 32.3533 45.1672 34.409 45.1672 36.647ZM26.6812 36.647C26.6812 34.4101 26.994 32.3537 27.4943 30.4875H35.2144V42.5368L27.5439 42.5373C27.0099 40.7373 26.6812 38.7696 26.6812 36.647ZM34.9297 18.3054C34.9406 18.2965 34.945 18.2836 34.9549 18.2747C35.041 18.2702 35.1281 18.2702 35.2142 18.2673V29.069L27.9209 29.0685C30.2079 22.2399 34.8678 18.3558 34.9297 18.3054ZM35.2147 43.956V54.2534C33.4257 52.6692 29.9381 49.097 28.0214 43.956H35.2147ZM36.6336 54.2515V43.956H43.8196C41.9028 49.0837 38.4226 52.6634 36.6336 54.2515ZM32.611 18.5527C30.8778 20.3596 28.001 23.9398 26.4089 29.0694H19.1294C21.5896 23.662 26.594 19.647 32.611 18.5527ZM18.5517 30.4877H26.0109C25.5466 32.3609 25.2621 34.4163 25.2621 36.6472C25.2621 38.7665 25.5635 40.7302 26.0564 42.537L18.4601 42.5375C17.8316 40.6871 17.4852 38.7075 17.4852 36.6477C17.4857 34.4875 17.8633 32.4149 18.5517 30.4877ZM19.007 43.9566H26.488C28.3131 49.2749 31.7492 53.0262 33.8179 54.9227C27.1654 54.1645 21.5789 49.8614 19.0073 43.9566H19.007ZM38.029 54.9227C40.0982 53.0262 43.5342 49.2749 45.3594 43.9566H52.8404C50.2683 49.8612 44.6818 54.1639 38.0285 54.9227H38.029ZM53.3869 42.5378H45.7912C46.2841 40.7309 46.5855 38.7666 46.5855 36.648C46.5855 34.417 46.3014 32.3617 45.8387 30.4885H53.2953C53.9837 32.4156 54.3618 34.4882 54.3618 36.648C54.3613 38.7078 54.0154 40.6869 53.3869 42.5378ZM52.7178 29.0689H45.4417C43.8555 23.9432 40.9896 20.3651 39.2609 18.5566C45.2665 19.6578 50.2606 23.6694 52.7172 29.0689H52.7178Z" fill="white"/>
<defs>
<linearGradient id="paint0_linear_18_8" x1="4.8029" y1="8.17956" x2="49.687" y2="74.9447" gradientUnits="userSpaceOnUse">
<stop offset="0.194178" stop-color="#1B1B5B"/>
<stop offset="0.716016" stop-color="#2E3785"/>
</linearGradient>
</defs>
</svg>
