<svg width="72" height="72" viewBox="0 0 72 72" fill="none" xmlns="http://www.w3.org/2000/svg">
<circle cx="35.6267" cy="35.6267" r="35.6267" fill="url(#paint0_linear_18_3)"/>
<path d="M35.6265 60.3184C35.4299 60.3184 35.2325 60.2808 35.0459 60.2063C30.9155 58.5449 23.3239 54.4173 18.894 45.4353C16.1669 39.9115 16.2998 33.871 16.4841 25.5087C16.5362 23.1473 16.5897 20.7058 16.5897 17.9879C16.5897 17.309 17.03 16.7089 17.6778 16.5051L35.1593 11.0066C35.4629 10.9112 35.7883 10.9112 36.0919 11.0066L53.5756 16.5051C54.2234 16.7082 54.6637 17.3083 54.6637 17.9879C54.6637 20.7058 54.718 23.1473 54.7693 25.5087C54.9537 33.8702 55.0867 39.9115 52.3581 45.4353C47.9282 54.4194 40.3361 58.5448 36.2054 60.2056C36.0196 60.2808 35.8223 60.3177 35.6263 60.3177L35.6265 60.3184ZM19.6967 19.1306C19.6844 21.4522 19.6352 23.6269 19.5933 25.5783C19.419 33.4974 19.2939 39.2185 21.6842 44.0604C25.4591 51.7142 31.8128 55.4456 35.6273 57.0818C39.4426 55.4471 45.797 51.7157 49.5712 44.0611C51.9622 39.2185 51.837 33.4974 51.6629 25.5783C51.6202 23.6269 51.5718 21.4529 51.5595 19.1306L35.6267 14.1202L19.6967 19.1306Z" fill="white"/>
<defs>
<linearGradient id="paint0_linear_18_3" x1="4.48835" y1="7.29363" x2="49.3725" y2="74.0588" gradientUnits="userSpaceOnUse">
<stop offset="0.194178" stop-color="#1B1B5B"/>
<stop offset="0.716016" stop-color="#2E3785"/>
</linearGradient>
</defs>
</svg>
