<svg width="72" height="72" viewBox="0 0 72 72" fill="none" xmlns="http://www.w3.org/2000/svg">
<path d="M71.2637 36.065C71.2637 55.7411 55.3131 71.6917 35.637 71.6917C15.9609 71.6917 0.0102539 55.7411 0.0102539 36.065C0.0102539 16.3889 15.9609 0.438232 35.637 0.438232C55.3131 0.438232 71.2637 16.3889 71.2637 36.065Z" fill="url(#paint0_linear_18_6)"/>
<path d="M31.8377 54.9476C31.8396 54.1332 32.1098 53.3419 32.6073 52.6966C33.1047 52.0518 33.8006 51.5888 34.5881 51.38V39.7444L26.3705 36.1853C26.0257 36.0346 25.8022 35.6949 25.8013 35.3189V29.1024C24.6344 28.7939 23.692 27.9346 23.2767 26.8014C22.8615 25.668 23.0259 24.4034 23.717 23.4141C24.4081 22.4244 25.539 21.8348 26.7461 21.8348C27.9531 21.8348 29.0841 22.4244 29.7752 23.4141C30.4664 24.4034 30.6312 25.668 30.2155 26.8014C29.8003 27.9347 28.8577 28.794 27.6909 29.1024V34.6986L34.5881 37.6856V20.7544C33.4213 20.4459 32.4784 19.587 32.0631 18.4538C31.6478 17.3205 31.8122 16.0558 32.5034 15.0661C33.1945 14.0768 34.3254 13.4872 35.5325 13.4872C36.7396 13.4872 37.8704 14.0768 38.5616 15.0661C39.2527 16.0558 39.4171 17.3205 39.0019 18.4538C38.5866 19.5871 37.6438 20.446 36.4768 20.7544V43.9465L43.5834 40.8683V35.2722C42.4165 34.9637 41.4736 34.1048 41.0583 32.9716C40.643 31.8383 40.8075 30.5731 41.4986 29.5839C42.1897 28.5942 43.3206 28.0046 44.5277 28.0046C45.7347 28.0046 46.8657 28.5941 47.5568 29.5839C48.2484 30.5731 48.4124 31.8383 47.9971 32.9716C47.5819 34.1049 46.639 34.9638 45.4721 35.2722V41.4853C45.4711 41.8619 45.2477 42.202 44.9028 42.3522L36.4769 46.0054V51.38C37.3707 51.6166 38.143 52.1802 38.641 52.9588C39.1394 53.7373 39.3279 54.6742 39.1687 55.585C39.01 56.4958 38.5149 57.3135 37.7822 57.8771C37.0495 58.4407 36.132 58.709 35.2108 58.6287C34.2901 58.5488 33.4327 58.126 32.8081 57.4448C32.1836 56.7631 31.8372 55.8721 31.8377 54.9476ZM28.5516 25.5344C28.5516 25.0554 28.3617 24.5962 28.023 24.2574C27.6842 23.9187 27.2251 23.7288 26.746 23.7288C26.2674 23.7288 25.8078 23.9187 25.4695 24.2574C25.1308 24.5962 24.9404 25.0554 24.9404 25.5344C24.9404 26.013 25.1308 26.4722 25.4695 26.8109C25.8077 27.1496 26.2674 27.34 26.746 27.34C27.225 27.3391 27.6837 27.1487 28.0225 26.8104C28.3607 26.4717 28.5511 26.013 28.5516 25.5344ZM46.3342 31.7042C46.3342 31.2256 46.1443 30.7664 45.8056 30.4277C45.4674 30.0894 45.0087 29.899 44.5301 29.8986C44.0515 29.8981 43.5923 30.088 43.2531 30.4258C42.9144 30.764 42.7235 31.2227 42.7231 31.7013C42.7221 32.1799 42.9116 32.639 43.2493 32.9783C43.5871 33.3175 44.0458 33.5083 44.5244 33.5098C45.0039 33.5098 45.4635 33.3198 45.8032 32.9816C46.1424 32.6429 46.3333 32.1831 46.3342 31.7042ZM37.3381 17.1868C37.3381 16.7083 37.1482 16.2486 36.8094 15.9103C36.4707 15.5716 36.0115 15.3812 35.5329 15.3812C35.0539 15.3812 34.5947 15.5711 34.256 15.9099C33.9172 16.2486 33.7273 16.7078 33.7269 17.1864C33.7269 17.6654 33.9172 18.1246 34.2555 18.4633C34.5937 18.8021 35.0529 18.9924 35.532 18.9924C36.0105 18.992 36.4697 18.8016 36.8085 18.4633C37.1472 18.1246 37.3376 17.6659 37.3381 17.1868ZM37.3381 54.9471C37.3381 54.4681 37.1482 54.0089 36.8094 53.6702C36.4707 53.3314 36.0115 53.1415 35.5325 53.1415C35.0534 53.1415 34.5943 53.3319 34.2555 53.6706C33.9172 54.0094 33.7268 54.4685 33.7268 54.9476C33.7273 55.4266 33.9177 55.8858 34.2564 56.2241C34.5951 56.5628 35.0543 56.7527 35.5334 56.7527C36.012 56.7523 36.4707 56.5619 36.8094 56.2232C37.1477 55.8849 37.3381 55.4257 37.3381 54.9471Z" fill="white"/>
<defs>
<linearGradient id="paint0_linear_18_6" x1="4.49861" y1="7.73187" x2="49.3827" y2="74.497" gradientUnits="userSpaceOnUse">
<stop offset="0.194178" stop-color="#1B1B5B"/>
<stop offset="0.716016" stop-color="#2E3785"/>
</linearGradient>
</defs>
</svg>
